STARTFONT 2.1
FONT -MLM-monoell-Medium-R-Normal--20-200-75-75-C-110-koi8-1
SIZE 20 75 75
FONTBOUNDINGBOX 11 18 0 -4
STARTPROPERTIES 25
FONTNAME_REGISTRY ""
FOUNDRY "MLM"
FAMILY_NAME "monoell"
WEIGHT_NAME "Medium"
SLANT "R"
SETWIDTH_NAME "Normal"
ADD_STYLE_NAME ""
PIXEL_SIZE 20
POINT_SIZE 200
RESOLUTION_X 75
RESOLUTION_Y 75
SPACING "C"
AVERAGE_WIDTH 110
CHARSET_REGISTRY "koi8"
CHARSET_ENCODING "1"
COPYRIGHT "Copyright 2002-2003 Maxim L. Markevitch"
ASSEMBLER "cvtbdf.pl (Linux)"
WEIGHT 10
RESOLUTION 103
X_HEIGHT 15
QUAD_WIDTH 11
FONT_ASCENT 15
FONT_DESCENT 5
_XMBDFED_INFO "Edited with xmbdfed 4.5."
COPYRIGHT2 ""
ENDPROPERTIES
CHARS 249
STARTCHAR char0
ENCODING 0
SWIDTH 528 0
DWIDTH 11 0
BBX 11 18 0 -4
BITMAP
0000
0000
0000
0000
0000
0000
0000
0000
0000
0000
0000
0000
0000
0000
0000
0000
0000
0000
ENDCHAR
STARTCHAR char1
ENCODING 1
SWIDTH 528 0
DWIDTH 11 0
BBX 11 18 0 -4
BITMAP
0000
0000
0000
0000
0000
0000
0000
0000
0000
0000
0000
0000
0000
0000
0000
0000
0000
0000
ENDCHAR
STARTCHAR char2
ENCODING 2
SWIDTH 528 0
DWIDTH 11 0
BBX 11 18 0 -4
BITMAP
0000
0000
0000
0000
0000
0000
0000
0000
0000
0000
0000
0000
0000
0000
0000
0000
0000
0000
ENDCHAR
STARTCHAR char3
ENCODING 3
SWIDTH 528 0
DWIDTH 11 0
BBX 11 18 0 -4
BITMAP
0000
3300
3300
3300
3F00
3300
3300
3300
0000
0FC0
0300
0300
0300
0300
0300
0000
0000
0000
ENDCHAR
STARTCHAR char4
ENCODING 4
SWIDTH 528 0
DWIDTH 11 0
BBX 11 18 0 -4
BITMAP
0000
3E00
3000
3000
3C00
3000
3000
3000
07C0
0600
0600
0780
0600
0600
0600
0000
0000
0000
ENDCHAR
STARTCHAR char5
ENCODING 5
SWIDTH 528 0
DWIDTH 11 0
BBX 11 18 0 -4
BITMAP
0000
1F00
3000
3000
3000
3000
1F00
0000
0F80
0CC0
0CC0
0F80
0F00
0D80
0CC0
0000
0000
0000
ENDCHAR
STARTCHAR char6
ENCODING 6
SWIDTH 528 0
DWIDTH 11 0
BBX 11 18 0 -4
BITMAP
0000
1800
1800
1800
1800
1800
1F00
0000
07C0
0600
0600
0780
0600
0600
0600
0000
0000
0000
ENDCHAR
STARTCHAR char7
ENCODING 7
SWIDTH 528 0
DWIDTH 11 0
BBX 11 18 0 -4
BITMAP
0000
0F00
1980
1980
1980
0F00
0000
0000
0000
0000
0000
0000
0000
0000
0000
0000
0000
0000
ENDCHAR
STARTCHAR char8
ENCODING 8
SWIDTH 528 0
DWIDTH 11 0
BBX 11 18 0 -4
BITMAP
0000
3E00
3300
3300
3E00
3300
3300
3E00
0000
07C0
0C00
0C00
0780
00C0
00C0
0F80
0000
0000
ENDCHAR
STARTCHAR char9
ENCODING 9
SWIDTH 528 0
DWIDTH 11 0
BBX 11 18 0 -4
BITMAP
0000
3300
3B00
3F00
3700
3300
3300
0000
0600
0600
0600
0600
0600
0600
07C0
0000
0000
0000
ENDCHAR
STARTCHAR char10
ENCODING 10
SWIDTH 528 0
DWIDTH 11 0
BBX 11 18 0 -4
BITMAP
0000
3300
3300
3300
1E00
1E00
0C00
0C00
0000
0FC0
0300
0300
0300
0300
0300
0000
0000
0000
ENDCHAR
STARTCHAR char11
ENCODING 11
SWIDTH 528 0
DWIDTH 11 0
BBX 11 18 0 -4
BITMAP
0000
0000
0000
0000
0000
0000
0000
0000
0000
0000
0000
0000
0000
0000
0000
0000
0000
0000
ENDCHAR
STARTCHAR char12
ENCODING 12
SWIDTH 528 0
DWIDTH 11 0
BBX 11 18 0 -4
BITMAP
0000
0000
0000
0000
0000
0000
0000
0000
0000
0000
0000
0000
0000
0000
0000
0000
0000
0000
ENDCHAR
STARTCHAR char13
ENCODING 13
SWIDTH 528 0
DWIDTH 11 0
BBX 11 18 0 -4
BITMAP
0000
0000
0000
0000
0000
0000
0000
0000
0000
0000
0000
0000
0000
0000
0000
0000
0000
0000
ENDCHAR
STARTCHAR char14
ENCODING 14
SWIDTH 528 0
DWIDTH 11 0
BBX 11 18 0 -4
BITMAP
0000
0000
0000
0000
0000
0000
0000
0000
0000
0000
0000
0000
0000
0000
0000
0000
0000
0000
ENDCHAR
STARTCHAR char15
ENCODING 15
SWIDTH 528 0
DWIDTH 11 0
BBX 11 18 0 -4
BITMAP
0000
0000
0000
0000
0000
0000
0000
0000
0000
0000
0000
0000
0000
0000
0000
0000
0000
0000
ENDCHAR
STARTCHAR char16
ENCODING 16
SWIDTH 528 0
DWIDTH 11 0
BBX 11 18 0 -4
BITMAP
0000
0000
0000
0000
0000
0000
0000
0000
0000
0000
0000
0000
0000
0000
0000
0000
0000
0000
ENDCHAR
STARTCHAR char17
ENCODING 17
SWIDTH 528 0
DWIDTH 11 0
BBX 11 18 0 -4
BITMAP
0000
0000
0000
0000
0000
0000
0000
0000
0000
0000
0000
0000
0000
0000
0000
0000
0000
0000
ENDCHAR
STARTCHAR char18
ENCODING 18
SWIDTH 528 0
DWIDTH 11 0
BBX 11 18 0 -4
BITMAP
0000
0000
0000
0000
0000
0000
0000
0000
0000
0000
0000
0000
0000
0000
0000
0000
0000
0000
ENDCHAR
STARTCHAR char19
ENCODING 19
SWIDTH 528 0
DWIDTH 11 0
BBX 11 18 0 -4
BITMAP
0000
0000
0000
0000
0000
0000
0000
0000
0000
0000
0000
0000
0000
0000
0000
0000
0000
0000
ENDCHAR
STARTCHAR char20
ENCODING 20
SWIDTH 528 0
DWIDTH 11 0
BBX 11 18 0 -4
BITMAP
0000
0000
0000
0000
0000
0000
0000
0000
0000
0000
0000
0000
0000
0000
0000
0000
0000
0000
ENDCHAR
STARTCHAR char21
ENCODING 21
SWIDTH 528 0
DWIDTH 11 0
BBX 11 18 0 -4
BITMAP
0000
0000
0000
0000
0000
0000
0000
0000
0000
0000
0000
0000
0000
0000
0000
0000
0000
0000
ENDCHAR
STARTCHAR char22
ENCODING 22
SWIDTH 528 0
DWIDTH 11 0
BBX 11 18 0 -4
BITMAP
0000
0000
0000
0000
0000
0000
0000
0000
0000
0000
0000
0000
0000
0000
0000
0000
0000
0000
ENDCHAR
STARTCHAR char23
ENCODING 23
SWIDTH 528 0
DWIDTH 11 0
BBX 11 18 0 -4
BITMAP
0000
0000
0000
0000
0000
0000
0000
0000
0000
0000
0000
0000
0000
0000
0000
0000
0000
0000
ENDCHAR
STARTCHAR char24
ENCODING 24
SWIDTH 528 0
DWIDTH 11 0
BBX 11 18 0 -4
BITMAP
0000
0000
0000
0000
0000
0000
0000
0000
0000
0000
0000
0000
0000
0000
0000
0000
0000
0000
ENDCHAR
STARTCHAR char25
ENCODING 25
SWIDTH 528 0
DWIDTH 11 0
BBX 11 18 0 -4
BITMAP
0000
0000
0000
0000
0000
0000
0000
0000
0000
0000
0000
0000
0000
0000
0000
0000
0000
0000
ENDCHAR
STARTCHAR char26
ENCODING 26
SWIDTH 528 0
DWIDTH 11 0
BBX 11 18 0 -4
BITMAP
0000
0000
0000
0000
0000
0000
0000
0000
0000
0000
0000
0000
0000
0000
0000
0000
0000
0000
ENDCHAR
STARTCHAR char27
ENCODING 27
SWIDTH 528 0
DWIDTH 11 0
BBX 11 18 0 -4
BITMAP
0000
0000
0000
0000
0000
0000
0000
0000
0000
0000
0000
0000
0000
0000
0000
0000
0000
0000
ENDCHAR
STARTCHAR char28
ENCODING 28
SWIDTH 528 0
DWIDTH 11 0
BBX 11 18 0 -4
BITMAP
0000
0000
0000
0000
0000
0000
0000
0000
0000
0000
0000
0000
0000
0000
0000
0000
0000
0000
ENDCHAR
STARTCHAR char29
ENCODING 29
SWIDTH 528 0
DWIDTH 11 0
BBX 11 18 0 -4
BITMAP
0000
0000
0000
0000
0000
0000
0000
0000
0000
0000
0000
0000
0000
0000
0000
0000
0000
0000
ENDCHAR
STARTCHAR char30
ENCODING 30
SWIDTH 528 0
DWIDTH 11 0
BBX 11 18 0 -4
BITMAP
0000
0000
0000
0000
0000
0000
0000
0000
0000
0000
0000
0000
0000
0000
0000
0000
0000
0000
ENDCHAR
STARTCHAR char31
ENCODING 31
SWIDTH 528 0
DWIDTH 11 0
BBX 11 18 0 -4
BITMAP
0000
0000
0000
0000
0000
0000
0000
0000
0000
0000
0000
0000
0000
0000
0000
0000
0000
0000
ENDCHAR
STARTCHAR char32
ENCODING 32
SWIDTH 528 0
DWIDTH 11 0
BBX 11 18 0 -4
BITMAP
0000
0000
0000
0000
0000
0000
0000
0000
0000
0000
0000
0000
0000
0000
0000
0000
0000
0000
ENDCHAR
STARTCHAR char33
ENCODING 33
SWIDTH 528 0
DWIDTH 11 0
BBX 11 18 0 -4
BITMAP
0600
0600
0600
0600
0600
0600
0600
0600
0600
0600
0000
0000
0600
0600
0000
0000
0000
0000
ENDCHAR
STARTCHAR char34
ENCODING 34
SWIDTH 528 0
DWIDTH 11 0
BBX 11 18 0 -4
BITMAP
0000
0900
0900
0900
0900
0900
0900
0900
0000
0000
0000
0000
0000
0000
0000
0000
0000
0000
ENDCHAR
STARTCHAR char35
ENCODING 35
SWIDTH 528 0
DWIDTH 11 0
BBX 11 18 0 -4
BITMAP
0000
0900
0900
0900
0900
3FC0
0900
0900
0900
0900
0900
3FC0
0900
0900
0900
0900
0000
0000
ENDCHAR
STARTCHAR char36
ENCODING 36
SWIDTH 528 0
DWIDTH 11 0
BBX 11 18 0 -4
BITMAP
0400
0400
0F00
1480
2480
2400
2400
1F00
0480
0480
0480
2480
2500
1E00
0400
0400
0400
0000
ENDCHAR
STARTCHAR char37
ENCODING 37
SWIDTH 528 0
DWIDTH 11 0
BBX 11 18 0 -4
BITMAP
0000
0000
3800
4400
4440
4480
3900
0200
0400
0800
1380
2440
4440
0440
0380
0000
0000
0000
ENDCHAR
STARTCHAR char38
ENCODING 38
SWIDTH 528 0
DWIDTH 11 0
BBX 11 18 0 -4
BITMAP
0000
0000
0F00
1000
2000
2000
2000
1000
1840
2480
4300
4300
4480
3840
0000
0000
0000
0000
ENDCHAR
STARTCHAR char39
ENCODING 39
SWIDTH 528 0
DWIDTH 11 0
BBX 11 18 0 -4
BITMAP
0000
0300
0300
0300
0300
0200
0400
0800
0000
0000
0000
0000
0000
0000
0000
0000
0000
0000
ENDCHAR
STARTCHAR char40
ENCODING 40
SWIDTH 528 0
DWIDTH 11 0
BBX 11 18 0 -4
BITMAP
0100
0300
0600
0600
0C00
0C00
0C00
0C00
0C00
0C00
0C00
0C00
0C00
0600
0600
0300
0100
0000
ENDCHAR
STARTCHAR char41
ENCODING 41
SWIDTH 528 0
DWIDTH 11 0
BBX 11 18 0 -4
BITMAP
1000
1800
0C00
0C00
0600
0600
0600
0600
0600
0600
0600
0600
0600
0C00
0C00
1800
1000
0000
ENDCHAR
STARTCHAR char42
ENCODING 42
SWIDTH 528 0
DWIDTH 11 0
BBX 11 18 0 -4
BITMAP
0000
0000
0000
0400
0400
0400
64C0
1F00
0E00
0E00
1B00
1100
2080
0000
0000
0000
0000
0000
ENDCHAR
STARTCHAR char43
ENCODING 43
SWIDTH 528 0
DWIDTH 11 0
BBX 11 18 0 -4
BITMAP
0000
0000
0000
0000
0400
0400
0400
0400
7FC0
0400
0400
0400
0400
0000
0000
0000
0000
0000
ENDCHAR
STARTCHAR char44
ENCODING 44
SWIDTH 528 0
DWIDTH 11 0
BBX 11 18 0 -4
BITMAP
0000
0000
0000
0000
0000
0000
0000
0000
0000
0000
0000
0600
0600
0600
0400
0800
1000
0000
ENDCHAR
STARTCHAR char45
ENCODING 45
SWIDTH 528 0
DWIDTH 11 0
BBX 11 18 0 -4
BITMAP
0000
0000
0000
0000
0000
0000
0000
0000
3FC0
0000
0000
0000
0000
0000
0000
0000
0000
0000
ENDCHAR
STARTCHAR char46
ENCODING 46
SWIDTH 528 0
DWIDTH 11 0
BBX 11 18 0 -4
BITMAP
0000
0000
0000
0000
0000
0000
0000
0000
0000
0000
0000
0600
0600
0600
0000
0000
0000
0000
ENDCHAR
STARTCHAR char47
ENCODING 47
SWIDTH 528 0
DWIDTH 11 0
BBX 11 18 0 -4
BITMAP
0040
0040
0080
0080
0100
0100
0200
0200
0400
0400
0800
0800
1000
1000
2000
2000
0000
0000
ENDCHAR
STARTCHAR char48
ENCODING 48
SWIDTH 528 0
DWIDTH 11 0
BBX 11 18 0 -4
BITMAP
0000
1F00
3180
3180
3180
3180
3180
3180
3180
3180
3180
3180
3180
1F00
0000
0000
0000
0000
ENDCHAR
STARTCHAR char49
ENCODING 49
SWIDTH 528 0
DWIDTH 11 0
BBX 11 18 0 -4
BITMAP
0000
0600
0E00
1E00
0600
0600
0600
0600
0600
0600
0600
0600
0600
0600
0000
0000
0000
0000
ENDCHAR
STARTCHAR char50
ENCODING 50
SWIDTH 528 0
DWIDTH 11 0
BBX 11 18 0 -4
BITMAP
0000
1F00
3180
3180
0180
0180
0300
0600
0C00
1800
3000
3000
3000
3F80
0000
0000
0000
0000
ENDCHAR
STARTCHAR char51
ENCODING 51
SWIDTH 528 0
DWIDTH 11 0
BBX 11 18 0 -4
BITMAP
0000
3F80
0180
0300
0600
0C00
1F00
0180
0180
0180
0180
3180
3300
1E00
0000
0000
0000
0000
ENDCHAR
STARTCHAR char52
ENCODING 52
SWIDTH 528 0
DWIDTH 11 0
BBX 11 18 0 -4
BITMAP
0000
0700
0700
0F00
0B00
1B00
1300
3300
2300
6300
7FC0
0300
0300
0300
0000
0000
0000
0000
ENDCHAR
STARTCHAR char53
ENCODING 53
SWIDTH 528 0
DWIDTH 11 0
BBX 11 18 0 -4
BITMAP
0000
3F80
3000
3000
3000
3000
3F00
0180
0180
0180
0180
3180
3300
1E00
0000
0000
0000
0000
ENDCHAR
STARTCHAR char54
ENCODING 54
SWIDTH 528 0
DWIDTH 11 0
BBX 11 18 0 -4
BITMAP
0000
0F00
1980
3180
3000
3000
3F00
3180
3180
3180
3180
3180
3300
1E00
0000
0000
0000
0000
ENDCHAR
STARTCHAR char55
ENCODING 55
SWIDTH 528 0
DWIDTH 11 0
BBX 11 18 0 -4
BITMAP
0000
3F80
0180
0180
0180
0180
0300
0300
0600
0600
0C00
0C00
1800
1800
0000
0000
0000
0000
ENDCHAR
STARTCHAR char56
ENCODING 56
SWIDTH 528 0
DWIDTH 11 0
BBX 11 18 0 -4
BITMAP
0000
1F00
3180
3180
3180
3180
1F00
3180
3180
3180
3180
3180
3180
1F00
0000
0000
0000
0000
ENDCHAR
STARTCHAR char57
ENCODING 57
SWIDTH 528 0
DWIDTH 11 0
BBX 11 18 0 -4
BITMAP
0000
0F00
1980
3180
3180
3180
3180
1F80
0180
0180
0180
3180
3300
1E00
0000
0000
0000
0000
ENDCHAR
STARTCHAR char58
ENCODING 58
SWIDTH 528 0
DWIDTH 11 0
BBX 11 18 0 -4
BITMAP
0000
0000
0000
0000
0000
0600
0600
0000
0000
0000
0000
0000
0600
0600
0000
0000
0000
0000
ENDCHAR
STARTCHAR char59
ENCODING 59
SWIDTH 528 0
DWIDTH 11 0
BBX 11 18 0 -4
BITMAP
0000
0000
0000
0000
0000
0600
0600
0000
0000
0000
0000
0600
0600
0600
0400
0800
1000
0000
ENDCHAR
STARTCHAR char60
ENCODING 60
SWIDTH 528 0
DWIDTH 11 0
BBX 11 18 0 -4
BITMAP
0000
0000
0000
0000
0000
01C0
0700
1C00
7000
1C00
0700
01C0
0000
0000
0000
0000
0000
0000
ENDCHAR
STARTCHAR char61
ENCODING 61
SWIDTH 528 0
DWIDTH 11 0
BBX 11 18 0 -4
BITMAP
0000
0000
0000
0000
0000
0000
3FC0
0000
0000
0000
3FC0
0000
0000
0000
0000
0000
0000
0000
ENDCHAR
STARTCHAR char62
ENCODING 62
SWIDTH 528 0
DWIDTH 11 0
BBX 11 18 0 -4
BITMAP
0000
0000
0000
0000
0000
7000
1C00
0700
01C0
0700
1C00
7000
0000
0000
0000
0000
0000
0000
ENDCHAR
STARTCHAR char63
ENCODING 63
SWIDTH 528 0
DWIDTH 11 0
BBX 11 18 0 -4
BITMAP
0000
1F80
30C0
30C0
00C0
0180
0300
0600
0600
0600
0000
0000
0600
0600
0000
0000
0000
0000
ENDCHAR
STARTCHAR char64
ENCODING 64
SWIDTH 528 0
DWIDTH 11 0
BBX 11 18 0 -4
BITMAP
0000
0000
0F80
1040
2040
23C0
2440
2440
2440
2440
2440
23C0
2000
1000
0FC0
0000
0000
0000
ENDCHAR
STARTCHAR char65
ENCODING 65
SWIDTH 528 0
DWIDTH 11 0
BBX 11 18 0 -4
BITMAP
0000
0000
0F80
18C0
30C0
30C0
30C0
30C0
3FC0
30C0
30C0
30C0
30C0
30C0
0000
0000
0000
0000
ENDCHAR
STARTCHAR char66
ENCODING 66
SWIDTH 528 0
DWIDTH 11 0
BBX 11 18 0 -4
BITMAP
0000
0000
3F80
30C0
30C0
30C0
30C0
3F80
30C0
30C0
30C0
30C0
3180
3F00
0000
0000
0000
0000
ENDCHAR
STARTCHAR char67
ENCODING 67
SWIDTH 528 0
DWIDTH 11 0
BBX 11 18 0 -4
BITMAP
0000
0000
0F80
18C0
30C0
3000
3000
3000
3000
3000
30C0
30C0
3180
1F00
0000
0000
0000
0000
ENDCHAR
STARTCHAR char68
ENCODING 68
SWIDTH 528 0
DWIDTH 11 0
BBX 11 18 0 -4
BITMAP
0000
0000
3F80
30C0
30C0
30C0
30C0
30C0
30C0
30C0
30C0
30C0
3180
3F00
0000
0000
0000
0000
ENDCHAR
STARTCHAR char69
ENCODING 69
SWIDTH 528 0
DWIDTH 11 0
BBX 11 18 0 -4
BITMAP
0000
0000
3FC0
3000
3000
3000
3000
3F80
3000
3000
3000
3000
3000
3FC0
0000
0000
0000
0000
ENDCHAR
STARTCHAR char70
ENCODING 70
SWIDTH 528 0
DWIDTH 11 0
BBX 11 18 0 -4
BITMAP
0000
0000
3FC0
3000
3000
3000
3000
3F80
3000
3000
3000
3000
3000
3000
0000
0000
0000
0000
ENDCHAR
STARTCHAR char71
ENCODING 71
SWIDTH 528 0
DWIDTH 11 0
BBX 11 18 0 -4
BITMAP
0000
0000
0F80
18C0
30C0
3000
3000
3000
33C0
30C0
30C0
30C0
30C0
1FC0
0000
0000
0000
0000
ENDCHAR
STARTCHAR char72
ENCODING 72
SWIDTH 528 0
DWIDTH 11 0
BBX 11 18 0 -4
BITMAP
0000
0000
30C0
30C0
30C0
30C0
30C0
3FC0
30C0
30C0
30C0
30C0
30C0
30C0
0000
0000
0000
0000
ENDCHAR
STARTCHAR char73
ENCODING 73
SWIDTH 528 0
DWIDTH 11 0
BBX 11 18 0 -4
BITMAP
0000
0000
3FC0
0600
0600
0600
0600
0600
0600
0600
0600
0600
0600
3FC0
0000
0000
0000
0000
ENDCHAR
STARTCHAR char74
ENCODING 74
SWIDTH 528 0
DWIDTH 11 0
BBX 11 18 0 -4
BITMAP
0000
0000
0FC0
00C0
00C0
00C0
00C0
00C0
00C0
00C0
00C0
30C0
3180
1F00
0000
0000
0000
0000
ENDCHAR
STARTCHAR char75
ENCODING 75
SWIDTH 528 0
DWIDTH 11 0
BBX 11 18 0 -4
BITMAP
0000
0000
30C0
3180
3300
3600
3C00
3C00
3600
3300
3180
30C0
3060
3020
0000
0000
0000
0000
ENDCHAR
STARTCHAR char76
ENCODING 76
SWIDTH 528 0
DWIDTH 11 0
BBX 11 18 0 -4
BITMAP
0000
0000
3000
3000
3000
3000
3000
3000
3000
3000
3000
3000
3000
3FC0
0000
0000
0000
0000
ENDCHAR
STARTCHAR char77
ENCODING 77
SWIDTH 528 0
DWIDTH 11 0
BBX 11 18 0 -4
BITMAP
0000
0000
60C0
60C0
71C0
71C0
6AC0
6AC0
64C0
64C0
64C0
60C0
60C0
60C0
0000
0000
0000
0000
ENDCHAR
STARTCHAR char78
ENCODING 78
SWIDTH 528 0
DWIDTH 11 0
BBX 11 18 0 -4
BITMAP
0000
0000
30C0
30C0
38C0
38C0
34C0
34C0
32C0
32C0
31C0
31C0
30C0
30C0
0000
0000
0000
0000
ENDCHAR
STARTCHAR char79
ENCODING 79
SWIDTH 528 0
DWIDTH 11 0
BBX 11 18 0 -4
BITMAP
0000
0000
0F80
18C0
30C0
30C0
30C0
30C0
30C0
30C0
30C0
30C0
3180
1F00
0000
0000
0000
0000
ENDCHAR
STARTCHAR char80
ENCODING 80
SWIDTH 528 0
DWIDTH 11 0
BBX 11 18 0 -4
BITMAP
0000
0000
3F80
30C0
30C0
30C0
3180
3F00
3000
3000
3000
3000
3000
3000
0000
0000
0000
0000
ENDCHAR
STARTCHAR char81
ENCODING 81
SWIDTH 528 0
DWIDTH 11 0
BBX 11 18 0 -4
BITMAP
0000
0000
0F80
18C0
30C0
30C0
30C0
30C0
30C0
30C0
30C0
30C0
3180
1F00
0E00
1320
01C0
0000
ENDCHAR
STARTCHAR char82
ENCODING 82
SWIDTH 528 0
DWIDTH 11 0
BBX 11 18 0 -4
BITMAP
0000
0000
3F80
30C0
30C0
30C0
3180
3F00
3600
3300
3180
30C0
3060
3020
0000
0000
0000
0000
ENDCHAR
STARTCHAR char83
ENCODING 83
SWIDTH 528 0
DWIDTH 11 0
BBX 11 18 0 -4
BITMAP
0000
0000
0F80
18C0
30C0
3000
3000
1F80
00C0
00C0
00C0
30C0
3180
1F00
0000
0000
0000
0000
ENDCHAR
STARTCHAR char84
ENCODING 84
SWIDTH 528 0
DWIDTH 11 0
BBX 11 18 0 -4
BITMAP
0000
0000
3FC0
0600
0600
0600
0600
0600
0600
0600
0600
0600
0600
0600
0000
0000
0000
0000
ENDCHAR
STARTCHAR char85
ENCODING 85
SWIDTH 528 0
DWIDTH 11 0
BBX 11 18 0 -4
BITMAP
0000
0000
30C0
30C0
30C0
30C0
30C0
30C0
30C0
30C0
30C0
30C0
30C0
1F80
0000
0000
0000
0000
ENDCHAR
STARTCHAR char86
ENCODING 86
SWIDTH 528 0
DWIDTH 11 0
BBX 11 18 0 -4
BITMAP
0000
0000
60C0
60C0
60C0
3180
3180
3180
1B00
1B00
1B00
0E00
0E00
0E00
0000
0000
0000
0000
ENDCHAR
STARTCHAR char87
ENCODING 87
SWIDTH 528 0
DWIDTH 11 0
BBX 11 18 0 -4
BITMAP
0000
0000
60C0
60C0
60C0
64C0
64C0
64C0
6AC0
6AC0
71C0
71C0
60C0
60C0
0000
0000
0000
0000
ENDCHAR
STARTCHAR char88
ENCODING 88
SWIDTH 528 0
DWIDTH 11 0
BBX 11 18 0 -4
BITMAP
0000
0000
30C0
30C0
30C0
1980
0F00
0600
0F00
1980
30C0
30C0
30C0
30C0
0000
0000
0000
0000
ENDCHAR
STARTCHAR char89
ENCODING 89
SWIDTH 528 0
DWIDTH 11 0
BBX 11 18 0 -4
BITMAP
0000
0000
30C0
30C0
30C0
1980
0F00
0600
0600
0600
0600
0600
0600
0600
0000
0000
0000
0000
ENDCHAR
STARTCHAR char90
ENCODING 90
SWIDTH 528 0
DWIDTH 11 0
BBX 11 18 0 -4
BITMAP
0000
0000
3FC0
0180
0180
0300
0300
0600
0600
0C00
0C00
1800
1800
3FC0
0000
0000
0000
0000
ENDCHAR
STARTCHAR char91
ENCODING 91
SWIDTH 528 0
DWIDTH 11 0
BBX 11 18 0 -4
BITMAP
0000
0F80
0C00
0C00
0C00
0C00
0C00
0C00
0C00
0C00
0C00
0C00
0C00
0C00
0C00
0F80
0000
0000
ENDCHAR
STARTCHAR char92
ENCODING 92
SWIDTH 528 0
DWIDTH 11 0
BBX 11 18 0 -4
BITMAP
2000
2000
1000
1000
0800
0800
0400
0400
0200
0200
0100
0100
0080
0080
0040
0040
0000
0000
ENDCHAR
STARTCHAR char93
ENCODING 93
SWIDTH 528 0
DWIDTH 11 0
BBX 11 18 0 -4
BITMAP
0000
1F00
0300
0300
0300
0300
0300
0300
0300
0300
0300
0300
0300
0300
0300
1F00
0000
0000
ENDCHAR
STARTCHAR char94
ENCODING 94
SWIDTH 528 0
DWIDTH 11 0
BBX 11 18 0 -4
BITMAP
0000
0400
0E00
1B00
3180
60C0
4040
0000
0000
0000
0000
0000
0000
0000
0000
0000
0000
0000
ENDCHAR
STARTCHAR char95
ENCODING 95
SWIDTH 528 0
DWIDTH 11 0
BBX 11 18 0 -4
BITMAP
0000
0000
0000
0000
0000
0000
0000
0000
0000
0000
0000
0000
0000
0000
0000
0000
7FC0
0000
ENDCHAR
STARTCHAR char96
ENCODING 96
SWIDTH 528 0
DWIDTH 11 0
BBX 11 18 0 -4
BITMAP
0000
0C00
0C00
0C00
0C00
0400
0200
0100
0000
0000
0000
0000
0000
0000
0000
0000
0000
0000
ENDCHAR
STARTCHAR char97
ENCODING 97
SWIDTH 528 0
DWIDTH 11 0
BBX 11 18 0 -4
BITMAP
0000
0000
0000
0000
0000
0FC0
18C0
30C0
30C0
30C0
30C0
31C0
32C0
1CC0
0000
0000
0000
0000
ENDCHAR
STARTCHAR char98
ENCODING 98
SWIDTH 528 0
DWIDTH 11 0
BBX 11 18 0 -4
BITMAP
0000
3000
3000
3000
3000
3780
38C0
30C0
30C0
30C0
30C0
30C0
3180
3F00
0000
0000
0000
0000
ENDCHAR
STARTCHAR char99
ENCODING 99
SWIDTH 528 0
DWIDTH 11 0
BBX 11 18 0 -4
BITMAP
0000
0000
0000
0000
0000
1F80
3000
3000
3000
3000
3000
3000
3000
1F80
0000
0000
0000
0000
ENDCHAR
STARTCHAR char100
ENCODING 100
SWIDTH 528 0
DWIDTH 11 0
BBX 11 18 0 -4
BITMAP
0000
00C0
00C0
00C0
00C0
0FC0
18C0
30C0
30C0
30C0
30C0
31C0
32C0
1CC0
0000
0000
0000
0000
ENDCHAR
STARTCHAR char101
ENCODING 101
SWIDTH 528 0
DWIDTH 11 0
BBX 11 18 0 -4
BITMAP
0000
0000
0000
0000
0000
1F80
30C0
30C0
3FC0
3000
3000
3000
3000
1F80
0000
0000
0000
0000
ENDCHAR
STARTCHAR char102
ENCODING 102
SWIDTH 528 0
DWIDTH 11 0
BBX 11 18 0 -4
BITMAP
0000
07C0
0C00
0C00
0C00
3F80
0C00
0C00
0C00
0C00
0C00
0C00
0C00
0C00
0800
0000
0000
0000
ENDCHAR
STARTCHAR char103
ENCODING 103
SWIDTH 528 0
DWIDTH 11 0
BBX 11 18 0 -4
BITMAP
0000
0000
0000
0000
0000
0FC0
18C0
30C0
30C0
30C0
30C0
31C0
32C0
1CC0
00C0
00C0
00C0
1F80
ENDCHAR
STARTCHAR char104
ENCODING 104
SWIDTH 528 0
DWIDTH 11 0
BBX 11 18 0 -4
BITMAP
0000
3000
3000
3000
3000
3380
34C0
38C0
30C0
30C0
30C0
30C0
30C0
30C0
0000
0000
0000
0000
ENDCHAR
STARTCHAR char105
ENCODING 105
SWIDTH 528 0
DWIDTH 11 0
BBX 11 18 0 -4
BITMAP
0000
0600
0600
0000
0000
3E00
0600
0600
0600
0600
0600
0600
0600
3FC0
0000
0000
0000
0000
ENDCHAR
STARTCHAR char106
ENCODING 106
SWIDTH 528 0
DWIDTH 11 0
BBX 11 18 0 -4
BITMAP
0000
0300
0300
0000
0000
1F00
0300
0300
0300
0300
0300
0300
0300
0300
0300
0300
0600
3C00
ENDCHAR
STARTCHAR char107
ENCODING 107
SWIDTH 528 0
DWIDTH 11 0
BBX 11 18 0 -4
BITMAP
0000
3000
3000
3000
3000
30C0
3180
3300
3600
3C00
3600
3300
3180
30C0
0000
0000
0000
0000
ENDCHAR
STARTCHAR char108
ENCODING 108
SWIDTH 528 0
DWIDTH 11 0
BBX 11 18 0 -4
BITMAP
0000
1E00
0600
0600
0600
0600
0600
0600
0600
0600
0600
0600
0600
3FC0
0000
0000
0000
0000
ENDCHAR
STARTCHAR char109
ENCODING 109
SWIDTH 528 0
DWIDTH 11 0
BBX 11 18 0 -4
BITMAP
0000
0000
0000
0000
0000
7B80
64C0
64C0
64C0
64C0
64C0
64C0
60C0
60C0
0000
0000
0000
0000
ENDCHAR
STARTCHAR char110
ENCODING 110
SWIDTH 528 0
DWIDTH 11 0
BBX 11 18 0 -4
BITMAP
0000
0000
0000
0000
0000
3380
34C0
38C0
30C0
30C0
30C0
30C0
30C0
30C0
0000
0000
0000
0000
ENDCHAR
STARTCHAR char111
ENCODING 111
SWIDTH 528 0
DWIDTH 11 0
BBX 11 18 0 -4
BITMAP
0000
0000
0000
0000
0000
1F80
30C0
30C0
30C0
30C0
30C0
30C0
30C0
1F80
0000
0000
0000
0000
ENDCHAR
STARTCHAR char112
ENCODING 112
SWIDTH 528 0
DWIDTH 11 0
BBX 11 18 0 -4
BITMAP
0000
0000
0000
0000
0000
3F80
30C0
30C0
30C0
30C0
30C0
30C0
3180
3F00
3000
3000
3000
3000
ENDCHAR
STARTCHAR char113
ENCODING 113
SWIDTH 528 0
DWIDTH 11 0
BBX 11 18 0 -4
BITMAP
0000
0000
0000
0000
0000
0FC0
18C0
30C0
30C0
30C0
30C0
31C0
32C0
1CC0
00C0
00C0
00C0
00C0
ENDCHAR
STARTCHAR char114
ENCODING 114
SWIDTH 528 0
DWIDTH 11 0
BBX 11 18 0 -4
BITMAP
0000
0000
0000
0000
0000
33C0
3400
3800
3000
3000
3000
3000
3000
3000
0000
0000
0000
0000
ENDCHAR
STARTCHAR char115
ENCODING 115
SWIDTH 528 0
DWIDTH 11 0
BBX 11 18 0 -4
BITMAP
0000
0000
0000
0000
0000
1F80
3000
3000
3000
1F00
0180
0180
0180
3F00
0000
0000
0000
0000
ENDCHAR
STARTCHAR char116
ENCODING 116
SWIDTH 528 0
DWIDTH 11 0
BBX 11 18 0 -4
BITMAP
0000
0000
0C00
0C00
0C00
3F80
0C00
0C00
0C00
0C00
0C00
0C00
0C00
0780
0000
0000
0000
0000
ENDCHAR
STARTCHAR char117
ENCODING 117
SWIDTH 528 0
DWIDTH 11 0
BBX 11 18 0 -4
BITMAP
0000
0000
0000
0000
0000
30C0
30C0
30C0
30C0
30C0
30C0
31C0
32C0
1CC0
0000
0000
0000
0000
ENDCHAR
STARTCHAR char118
ENCODING 118
SWIDTH 528 0
DWIDTH 11 0
BBX 11 18 0 -4
BITMAP
0000
0000
0000
0000
0000
30C0
30C0
30C0
1880
1980
0D00
0F00
0600
0600
0000
0000
0000
0000
ENDCHAR
STARTCHAR char119
ENCODING 119
SWIDTH 528 0
DWIDTH 11 0
BBX 11 18 0 -4
BITMAP
0000
0000
0000
0000
0000
60C0
60C0
64C0
64C0
64C0
64C0
64C0
64C0
3B80
0000
0000
0000
0000
ENDCHAR
STARTCHAR char120
ENCODING 120
SWIDTH 528 0
DWIDTH 11 0
BBX 11 18 0 -4
BITMAP
0000
0000
0000
0000
0000
30C0
30C0
1980
0F00
0600
0F00
1980
30C0
30C0
0000
0000
0000
0000
ENDCHAR
STARTCHAR char121
ENCODING 121
SWIDTH 528 0
DWIDTH 11 0
BBX 11 18 0 -4
BITMAP
0000
0000
0000
0000
0000
30C0
30C0
30C0
30C0
30C0
30C0
31C0
32C0
1CC0
00C0
00C0
00C0
1F80
ENDCHAR
STARTCHAR char122
ENCODING 122
SWIDTH 528 0
DWIDTH 11 0
BBX 11 18 0 -4
BITMAP
0000
0000
0000
0000
0000
3FC0
00C0
0180
0300
0600
0C00
1800
3000
3FC0
0000
0000
0000
0000
ENDCHAR
STARTCHAR char123
ENCODING 123
SWIDTH 528 0
DWIDTH 11 0
BBX 11 18 0 -4
BITMAP
0380
0600
0600
0600
0600
0600
0600
0600
1C00
0600
0600
0600
0600
0600
0600
0600
0380
0000
ENDCHAR
STARTCHAR char124
ENCODING 124
SWIDTH 528 0
DWIDTH 11 0
BBX 11 18 0 -4
BITMAP
0400
0400
0400
0400
0400
0400
0400
0400
0400
0400
0400
0400
0400
0400
0400
0400
0400
0000
ENDCHAR
STARTCHAR char125
ENCODING 125
SWIDTH 528 0
DWIDTH 11 0
BBX 11 18 0 -4
BITMAP
1C00
0600
0600
0600
0600
0600
0600
0600
0380
0600
0600
0600
0600
0600
0600
0600
1C00
0000
ENDCHAR
STARTCHAR char126
ENCODING 126
SWIDTH 528 0
DWIDTH 11 0
BBX 11 18 0 -4
BITMAP
0000
0000
0000
1840
2C40
4680
4300
0000
0000
0000
0000
0000
0000
0000
0000
0000
0000
0000
ENDCHAR
STARTCHAR char127
ENCODING 127
SWIDTH 528 0
DWIDTH 11 0
BBX 11 18 0 -4
BITMAP
0000
0000
0000
0000
0000
0000
0000
0000
0000
0000
0000
0000
0000
0000
0000
0000
0000
0000
ENDCHAR
STARTCHAR char128
ENCODING 128
SWIDTH 528 0
DWIDTH 11 0
BBX 11 18 0 -4
BITMAP
0000
0000
0000
03C0
0400
0800
0800
3F80
0800
3F00
0800
0800
0840
0780
0000
0000
0000
0000
ENDCHAR
STARTCHAR char129
ENCODING 129
SWIDTH 528 0
DWIDTH 11 0
BBX 11 18 0 -4
BITMAP
0000
0000
0000
0000
0000
0000
0000
0000
0000
0000
0000
0000
0000
0000
0000
0000
0000
0000
ENDCHAR
STARTCHAR char130
ENCODING 130
SWIDTH 528 0
DWIDTH 11 0
BBX 11 18 0 -4
BITMAP
0000
0000
0000
0000
0000
0000
0000
0000
0000
0000
0000
0000
0000
0000
0000
0000
0000
0000
ENDCHAR
STARTCHAR char131
ENCODING 131
SWIDTH 528 0
DWIDTH 11 0
BBX 11 18 0 -4
BITMAP
0000
0000
0000
0000
0000
0000
0000
0000
0000
0000
0000
0000
0000
0000
0000
0000
0000
0000
ENDCHAR
STARTCHAR char132
ENCODING 132
SWIDTH 528 0
DWIDTH 11 0
BBX 11 18 0 -4
BITMAP
0000
0000
0000
0000
0000
0000
0000
0000
0000
0000
0000
0000
0000
0000
0000
0000
0000
0000
ENDCHAR
STARTCHAR char133
ENCODING 133
SWIDTH 528 0
DWIDTH 11 0
BBX 11 18 0 -4
BITMAP
0000
0000
0000
0000
0000
0000
0000
0000
0000
0000
0000
0000
0000
0000
0000
0000
0000
0000
ENDCHAR
STARTCHAR char134
ENCODING 134
SWIDTH 528 0
DWIDTH 11 0
BBX 11 18 0 -4
BITMAP
0000
0000
0000
0000
0000
0000
0000
0000
0000
0000
0000
0000
0000
0000
0000
0000
0000
0000
ENDCHAR
STARTCHAR char135
ENCODING 135
SWIDTH 528 0
DWIDTH 11 0
BBX 11 18 0 -4
BITMAP
0000
0000
0000
0000
0000
0000
0000
0000
0000
0000
0000
0000
0000
0000
0000
0000
0000
0000
ENDCHAR
STARTCHAR char136
ENCODING 136
SWIDTH 528 0
DWIDTH 11 0
BBX 11 18 0 -4
BITMAP
0000
0000
0000
0000
0000
0000
0000
0000
0000
0000
0000
0000
0000
0000
0000
0000
0000
0000
ENDCHAR
STARTCHAR char137
ENCODING 137
SWIDTH 528 0
DWIDTH 11 0
BBX 11 18 0 -4
BITMAP
0000
0000
0000
0000
0000
0000
0000
0000
0000
0000
0000
0000
0000
0000
0000
0000
0000
0000
ENDCHAR
STARTCHAR char139
ENCODING 139
SWIDTH 528 0
DWIDTH 11 0
BBX 11 18 0 -4
BITMAP
0000
0000
0000
0000
0000
0000
0000
0000
0000
0000
0000
0000
0000
0000
0000
0000
0000
0000
ENDCHAR
STARTCHAR char143
ENCODING 143
SWIDTH 528 0
DWIDTH 11 0
BBX 11 18 0 -4
BITMAP
0000
0000
0000
0000
0000
0000
0000
0000
0000
0000
0000
0000
0000
0000
0000
0000
0000
0000
ENDCHAR
STARTCHAR char144
ENCODING 144
SWIDTH 528 0
DWIDTH 11 0
BBX 11 18 0 -4
BITMAP
0000
0000
0000
0000
0000
0000
0000
0000
0000
0000
0000
0000
0000
0000
0000
0000
0000
0000
ENDCHAR
STARTCHAR char145
ENCODING 145
SWIDTH 528 0
DWIDTH 11 0
BBX 11 18 0 -4
BITMAP
0000
0000
0000
0000
0000
0000
0000
0000
0000
0000
0000
0000
0000
0000
0000
0000
0000
0000
ENDCHAR
STARTCHAR char146
ENCODING 146
SWIDTH 528 0
DWIDTH 11 0
BBX 11 18 0 -4
BITMAP
0000
0000
0000
0000
0000
0000
0000
0000
0000
0000
0000
0000
0000
0000
0000
0000
0000
0000
ENDCHAR
STARTCHAR char147
ENCODING 147
SWIDTH 528 0
DWIDTH 11 0
BBX 11 18 0 -4
BITMAP
0000
0000
0000
0000
0000
0000
0000
0000
0000
0000
0000
0000
0000
0000
0000
0000
0000
0000
ENDCHAR
STARTCHAR char148
ENCODING 148
SWIDTH 528 0
DWIDTH 11 0
BBX 11 18 0 -4
BITMAP
0000
0000
0000
0000
0000
0000
0000
0000
0000
0000
0000
0000
0000
0000
0000
0000
0000
0000
ENDCHAR
STARTCHAR char149
ENCODING 149
SWIDTH 528 0
DWIDTH 11 0
BBX 11 18 0 -4
BITMAP
0000
0000
0000
0000
0000
0000
0000
0000
0000
0000
0000
0000
0000
0000
0000
0000
0000
0000
ENDCHAR
STARTCHAR char150
ENCODING 150
SWIDTH 528 0
DWIDTH 11 0
BBX 11 18 0 -4
BITMAP
0000
0000
0000
0000
0000
0000
0000
0000
7FC0
0000
0000
0000
0000
0000
0000
0000
0000
0000
ENDCHAR
STARTCHAR char151
ENCODING 151
SWIDTH 528 0
DWIDTH 11 0
BBX 11 18 0 -4
BITMAP
0000
0000
0000
0000
0000
0000
0000
0000
0000
0000
0000
0000
0000
0000
0000
0000
0000
0000
ENDCHAR
STARTCHAR char152
ENCODING 152
SWIDTH 528 0
DWIDTH 11 0
BBX 11 18 0 -4
BITMAP
0000
0000
0000
0000
0000
0000
0000
0000
0000
0000
0000
0000
0000
0000
0000
0000
0000
0000
ENDCHAR
STARTCHAR char153
ENCODING 153
SWIDTH 528 0
DWIDTH 11 0
BBX 11 18 0 -4
BITMAP
0000
0000
0000
0000
0000
0000
0000
0000
0000
0000
0000
0000
0000
0000
0000
0000
0000
0000
ENDCHAR
STARTCHAR char154
ENCODING 154
SWIDTH 528 0
DWIDTH 11 0
BBX 11 18 0 -4
BITMAP
0000
0000
0000
0000
0000
0000
0000
0000
0000
0000
0000
0000
0000
0000
0000
0000
0000
0000
ENDCHAR
STARTCHAR char155
ENCODING 155
SWIDTH 528 0
DWIDTH 11 0
BBX 11 18 0 -4
BITMAP
0000
0000
0000
0000
0000
0000
0000
0000
0000
0000
0000
0000
0000
0000
0000
0000
0000
0000
ENDCHAR
STARTCHAR char159
ENCODING 159
SWIDTH 528 0
DWIDTH 11 0
BBX 11 18 0 -4
BITMAP
0000
0000
0000
0000
0000
0000
0000
0000
0000
0000
0000
0000
0000
0000
0000
0000
0000
0000
ENDCHAR
STARTCHAR char160
ENCODING 160
SWIDTH 528 0
DWIDTH 11 0
BBX 11 18 0 -4
BITMAP
0000
0000
0000
0000
0000
0000
0000
0000
0000
0000
0000
0000
0000
0000
0000
0000
0000
0000
ENDCHAR
STARTCHAR char161
ENCODING 161
SWIDTH 528 0
DWIDTH 11 0
BBX 11 18 0 -4
BITMAP
0000
0000
0000
0000
0000
0000
0000
0000
0000
0000
0000
0000
0000
0000
0000
0000
0000
0000
ENDCHAR
STARTCHAR char162
ENCODING 162
SWIDTH 528 0
DWIDTH 11 0
BBX 11 18 0 -4
BITMAP
0000
0000
0000
0000
0000
0000
0000
0000
0000
0000
0000
0000
0000
0000
0000
0000
0000
0000
ENDCHAR
STARTCHAR char163
ENCODING 163
SWIDTH 528 0
DWIDTH 11 0
BBX 11 18 0 -4
BITMAP
0000
0000
1980
1980
0000
0F00
1980
30C0
3FC0
3000
3000
3000
18C0
0F80
0000
0000
0000
0000
ENDCHAR
STARTCHAR char164
ENCODING 164
SWIDTH 528 0
DWIDTH 11 0
BBX 11 18 0 -4
BITMAP
0000
0000
0000
0000
0000
0000
0000
0000
0000
0000
0000
0000
0000
0000
0000
0000
0000
0000
ENDCHAR
STARTCHAR char165
ENCODING 165
SWIDTH 528 0
DWIDTH 11 0
BBX 11 18 0 -4
BITMAP
0000
0000
0000
0000
0000
0000
0000
0000
0000
0000
0000
0000
0000
0000
0000
0000
0000
0000
ENDCHAR
STARTCHAR char166
ENCODING 166
SWIDTH 528 0
DWIDTH 11 0
BBX 11 18 0 -4
BITMAP
0000
0000
0000
0000
0000
0000
0000
0000
0000
0000
0000
0000
0000
0000
0000
0000
0000
0000
ENDCHAR
STARTCHAR char167
ENCODING 167
SWIDTH 528 0
DWIDTH 11 0
BBX 11 18 0 -4
BITMAP
0000
1F00
3180
3000
1800
1E00
3300
3180
1980
0F00
0300
0180
3180
1F00
0000
0000
0000
0000
ENDCHAR
STARTCHAR char168
ENCODING 168
SWIDTH 528 0
DWIDTH 11 0
BBX 11 18 0 -4
BITMAP
0000
0000
0000
0000
0000
0000
0000
0000
0000
0000
0000
0000
0000
0000
0000
0000
0000
0000
ENDCHAR
STARTCHAR char169
ENCODING 169
SWIDTH 528 0
DWIDTH 11 0
BBX 11 18 0 -4
BITMAP
0000
0000
0000
0000
0000
0000
0000
0000
0000
0000
0000
0000
0000
0000
0000
0000
0000
0000
ENDCHAR
STARTCHAR char170
ENCODING 170
SWIDTH 528 0
DWIDTH 11 0
BBX 11 18 0 -4
BITMAP
0000
0000
0000
0000
0000
0000
0000
0000
0000
0000
0000
0000
0000
0000
0000
0000
0000
0000
ENDCHAR
STARTCHAR char171
ENCODING 171
SWIDTH 528 0
DWIDTH 11 0
BBX 11 18 0 -4
BITMAP
0000
0000
0000
0000
0660
0CC0
1980
3300
6600
3300
1980
0CC0
0660
0000
0000
0000
0000
0000
ENDCHAR
STARTCHAR char172
ENCODING 172
SWIDTH 528 0
DWIDTH 11 0
BBX 11 18 0 -4
BITMAP
0000
0000
0000
0000
0000
0000
0000
0000
0000
0000
0000
0000
0000
0000
0000
0000
0000
0000
ENDCHAR
STARTCHAR char173
ENCODING 173
SWIDTH 528 0
DWIDTH 11 0
BBX 11 18 0 -4
BITMAP
0000
0000
0000
0000
0000
0000
0000
0000
0000
0000
0000
0000
0000
0000
0000
0000
0000
0000
ENDCHAR
STARTCHAR char174
ENCODING 174
SWIDTH 528 0
DWIDTH 11 0
BBX 11 18 0 -4
BITMAP
0000
0000
0000
0000
0000
0000
0000
0000
0000
0000
0000
0000
0000
0000
0000
0000
0000
0000
ENDCHAR
STARTCHAR char175
ENCODING 175
SWIDTH 528 0
DWIDTH 11 0
BBX 11 18 0 -4
BITMAP
0000
0000
0000
0000
0000
0000
0000
0000
0000
0000
0000
0000
0000
0000
0000
0000
0000
0000
ENDCHAR
STARTCHAR char176
ENCODING 176
SWIDTH 528 0
DWIDTH 11 0
BBX 11 18 0 -4
BITMAP
0000
0000
0000
0000
0000
0000
0000
0000
0000
0000
0000
0000
0000
0000
0000
0000
0000
0000
ENDCHAR
STARTCHAR char177
ENCODING 177
SWIDTH 528 0
DWIDTH 11 0
BBX 11 18 0 -4
BITMAP
0000
0000
0000
0000
0000
0000
0000
0000
0000
0000
0000
0000
0000
0000
0000
0000
0000
0000
ENDCHAR
STARTCHAR char178
ENCODING 178
SWIDTH 528 0
DWIDTH 11 0
BBX 11 18 0 -4
BITMAP
0000
0000
0000
0000
0000
0000
0000
0000
0000
0000
0000
0000
0000
0000
0000
0000
0000
0000
ENDCHAR
STARTCHAR char179
ENCODING 179
SWIDTH 528 0
DWIDTH 11 0
BBX 11 18 0 -4
BITMAP
1980
1980
0000
3FC0
3000
3000
3000
3F00
3000
3000
3000
3000
3000
3FC0
0000
0000
0000
0000
ENDCHAR
STARTCHAR char180
ENCODING 180
SWIDTH 528 0
DWIDTH 11 0
BBX 11 18 0 -4
BITMAP
0000
0000
0000
0000
0000
0000
0000
0000
0000
0000
0000
0000
0000
0000
0000
0000
0000
0000
ENDCHAR
STARTCHAR char181
ENCODING 181
SWIDTH 528 0
DWIDTH 11 0
BBX 11 18 0 -4
BITMAP
0000
0000
0000
0000
0000
0000
0000
0000
0000
0000
0000
0000
0000
0000
0000
0000
0000
0000
ENDCHAR
STARTCHAR char182
ENCODING 182
SWIDTH 528 0
DWIDTH 11 0
BBX 11 18 0 -4
BITMAP
0000
0000
0000
0000
0000
0000
0000
0000
0000
0000
0000
0000
0000
0000
0000
0000
0000
0000
ENDCHAR
STARTCHAR char183
ENCODING 183
SWIDTH 528 0
DWIDTH 11 0
BBX 11 18 0 -4
BITMAP
0000
0000
0000
0000
0000
0000
0000
0000
0000
0000
0000
0000
0000
0000
0000
0000
0000
0000
ENDCHAR
STARTCHAR char184
ENCODING 184
SWIDTH 528 0
DWIDTH 11 0
BBX 11 18 0 -4
BITMAP
0000
0000
0000
0000
0000
0000
0000
0000
0000
0000
0000
0000
0000
0000
0000
0000
0000
0000
ENDCHAR
STARTCHAR char185
ENCODING 185
SWIDTH 528 0
DWIDTH 11 0
BBX 11 18 0 -4
BITMAP
0000
0000
38C0
38C0
38C0
34C0
34C0
34C0
32C0
32C0
32C0
31C0
31C0
31C0
0000
0000
0000
0000
ENDCHAR
STARTCHAR char186
ENCODING 186
SWIDTH 528 0
DWIDTH 11 0
BBX 11 18 0 -4
BITMAP
0000
0000
0000
0000
0000
0000
0000
0000
0000
0000
0000
0000
0000
0000
0000
0000
0000
0000
ENDCHAR
STARTCHAR char187
ENCODING 187
SWIDTH 528 0
DWIDTH 11 0
BBX 11 18 0 -4
BITMAP
0000
0000
0000
0000
6600
3300
1980
0CC0
0660
0CC0
1980
3300
6600
0000
0000
0000
0000
0000
ENDCHAR
STARTCHAR char188
ENCODING 188
SWIDTH 528 0
DWIDTH 11 0
BBX 11 18 0 -4
BITMAP
0000
0000
0000
0000
0000
0000
0000
0000
0000
0000
0000
0000
0000
0000
0000
0000
0000
0000
ENDCHAR
STARTCHAR char189
ENCODING 189
SWIDTH 528 0
DWIDTH 11 0
BBX 11 18 0 -4
BITMAP
0000
0000
0000
0000
0000
0000
0000
0000
0000
0000
0000
0000
0000
0000
0000
0000
0000
0000
ENDCHAR
STARTCHAR char190
ENCODING 190
SWIDTH 528 0
DWIDTH 11 0
BBX 11 18 0 -4
BITMAP
0000
0000
0000
0000
0000
0000
0000
0000
0000
0000
0000
0000
0000
0000
0000
0000
0000
0000
ENDCHAR
STARTCHAR char191
ENCODING 191
SWIDTH 528 0
DWIDTH 11 0
BBX 11 18 0 -4
BITMAP
0000
0000
0000
0000
0000
0000
0000
0000
0000
0000
0000
0000
0000
0000
0000
0000
0000
0000
ENDCHAR
STARTCHAR char192
ENCODING 192
SWIDTH 528 0
DWIDTH 11 0
BBX 11 18 0 -4
BITMAP
0000
0000
0000
0000
0000
6380
66C0
6C60
6C60
7C60
6C60
6C60
66C0
6380
0000
0000
0000
0000
ENDCHAR
STARTCHAR char193
ENCODING 193
SWIDTH 528 0
DWIDTH 11 0
BBX 11 18 0 -4
BITMAP
0000
0000
0000
0000
0000
1F80
00C0
00C0
1FC0
30C0
30C0
30C0
30C0
1FC0
0000
0000
0000
0000
ENDCHAR
STARTCHAR char194
ENCODING 194
SWIDTH 528 0
DWIDTH 11 0
BBX 11 18 0 -4
BITMAP
0000
0000
0FC0
1800
3000
3700
3980
30C0
30C0
30C0
30C0
30C0
1980
0F00
0000
0000
0000
0000
ENDCHAR
STARTCHAR char195
ENCODING 195
SWIDTH 528 0
DWIDTH 11 0
BBX 11 18 0 -4
BITMAP
0000
0000
0000
0000
0000
30C0
30C0
30C0
30C0
30C0
30C0
30C0
30C0
3FE0
0060
0060
0000
0000
ENDCHAR
STARTCHAR char196
ENCODING 196
SWIDTH 528 0
DWIDTH 11 0
BBX 11 18 0 -4
BITMAP
0000
0000
0000
0000
0000
1FC0
18C0
18C0
18C0
18C0
18C0
18C0
30C0
7FE0
6060
6060
0000
0000
ENDCHAR
STARTCHAR char197
ENCODING 197
SWIDTH 528 0
DWIDTH 11 0
BBX 11 18 0 -4
BITMAP
0000
0000
0000
0000
0000
0F00
1980
30C0
3FC0
3000
3000
3000
18C0
0F80
0000
0000
0000
0000
ENDCHAR
STARTCHAR char198
ENCODING 198
SWIDTH 528 0
DWIDTH 11 0
BBX 11 18 0 -4
BITMAP
0000
0000
0000
0400
0400
3F80
64C0
64C0
64C0
64C0
64C0
64C0
64C0
3F80
0400
0400
0400
0400
ENDCHAR
STARTCHAR char199
ENCODING 199
SWIDTH 528 0
DWIDTH 11 0
BBX 11 18 0 -4
BITMAP
0000
0000
0000
0000
0000
3FC0
3000
3000
3000
3000
3000
3000
3000
3000
0000
0000
0000
0000
ENDCHAR
STARTCHAR char200
ENCODING 200
SWIDTH 528 0
DWIDTH 11 0
BBX 11 18 0 -4
BITMAP
0000
0000
0000
0000
0000
30C0
30C0
1980
0F00
0600
0F00
1980
30C0
30C0
0000
0000
0000
0000
ENDCHAR
STARTCHAR char201
ENCODING 201
SWIDTH 528 0
DWIDTH 11 0
BBX 11 18 0 -4
BITMAP
0000
0000
0000
0000
0000
31C0
31C0
33C0
32C0
36C0
34C0
3CC0
38C0
38C0
0000
0000
0000
0000
ENDCHAR
STARTCHAR char202
ENCODING 202
SWIDTH 528 0
DWIDTH 11 0
BBX 11 18 0 -4
BITMAP
0000
0000
0F00
0000
0000
31C0
31C0
33C0
32C0
36C0
34C0
3CC0
38C0
38C0
0000
0000
0000
0000
ENDCHAR
STARTCHAR char203
ENCODING 203
SWIDTH 528 0
DWIDTH 11 0
BBX 11 18 0 -4
BITMAP
0000
0000
0000
0000
0000
30C0
3180
3300
3600
3C00
3600
3300
3180
30C0
0000
0000
0000
0000
ENDCHAR
STARTCHAR char204
ENCODING 204
SWIDTH 528 0
DWIDTH 11 0
BBX 11 18 0 -4
BITMAP
0000
0000
0000
0000
0000
1FC0
18C0
18C0
18C0
18C0
18C0
18C0
18C0
70C0
0000
0000
0000
0000
ENDCHAR
STARTCHAR char205
ENCODING 205
SWIDTH 528 0
DWIDTH 11 0
BBX 11 18 0 -4
BITMAP
0000
0000
0000
0000
0000
60C0
60C0
71C0
71C0
7BC0
5AC0
5EC0
4CC0
4CC0
0000
0000
0000
0000
ENDCHAR
STARTCHAR char206
ENCODING 206
SWIDTH 528 0
DWIDTH 11 0
BBX 11 18 0 -4
BITMAP
0000
0000
0000
0000
0000
30C0
30C0
30C0
3FC0
30C0
30C0
30C0
30C0
30C0
0000
0000
0000
0000
ENDCHAR
STARTCHAR char207
ENCODING 207
SWIDTH 528 0
DWIDTH 11 0
BBX 11 18 0 -4
BITMAP
0000
0000
0000
0000
0000
0F00
1980
30C0
30C0
30C0
30C0
30C0
1980
0F00
0000
0000
0000
0000
ENDCHAR
STARTCHAR char208
ENCODING 208
SWIDTH 528 0
DWIDTH 11 0
BBX 11 18 0 -4
BITMAP
0000
0000
0000
0000
0000
3FC0
30C0
30C0
30C0
30C0
30C0
30C0
30C0
30C0
0000
0000
0000
0000
ENDCHAR
STARTCHAR char209
ENCODING 209
SWIDTH 528 0
DWIDTH 11 0
BBX 11 18 0 -4
BITMAP
0000
0000
0000
0000
0000
1FC0
30C0
30C0
30C0
1FC0
06C0
0CC0
18C0
30C0
0000
0000
0000
0000
ENDCHAR
STARTCHAR char210
ENCODING 210
SWIDTH 528 0
DWIDTH 11 0
BBX 11 18 0 -4
BITMAP
0000
0000
0000
0000
0000
3700
3980
30C0
30C0
30C0
30C0
30C0
3980
3700
3000
3000
3000
3000
ENDCHAR
STARTCHAR char211
ENCODING 211
SWIDTH 528 0
DWIDTH 11 0
BBX 11 18 0 -4
BITMAP
0000
0000
0000
0000
0000
0F80
18C0
3000
3000
3000
3000
3000
18C0
0F80
0000
0000
0000
0000
ENDCHAR
STARTCHAR char212
ENCODING 212
SWIDTH 528 0
DWIDTH 11 0
BBX 11 18 0 -4
BITMAP
0000
0000
0000
0000
0000
3FC0
0600
0600
0600
0600
0600
0600
0600
0600
0000
0000
0000
0000
ENDCHAR
STARTCHAR char213
ENCODING 213
SWIDTH 528 0
DWIDTH 11 0
BBX 11 18 0 -4
BITMAP
0000
0000
0000
0000
0000
60C0
60C0
3080
3180
1980
1900
0F00
0F00
0600
0600
0600
0C00
7800
ENDCHAR
STARTCHAR char214
ENCODING 214
SWIDTH 528 0
DWIDTH 11 0
BBX 11 18 0 -4
BITMAP
0000
0000
0000
0000
0000
64C0
64C0
64C0
64C0
3F80
64C0
64C0
64C0
64C0
0000
0000
0000
0000
ENDCHAR
STARTCHAR char215
ENCODING 215
SWIDTH 528 0
DWIDTH 11 0
BBX 11 18 0 -4
BITMAP
0000
0000
0000
0000
0000
3F80
30C0
30C0
30C0
3F80
30C0
30C0
30C0
3F80
0000
0000
0000
0000
ENDCHAR
STARTCHAR char216
ENCODING 216
SWIDTH 528 0
DWIDTH 11 0
BBX 11 18 0 -4
BITMAP
0000
0000
0000
0000
0000
3000
3000
3000
3F80
30C0
30C0
30C0
30C0
3F80
0000
0000
0000
0000
ENDCHAR
STARTCHAR char217
ENCODING 217
SWIDTH 528 0
DWIDTH 11 0
BBX 11 18 0 -4
BITMAP
0000
0000
0000
0000
0000
60C0
60C0
60C0
7CC0
66C0
63C0
63C0
66C0
7CC0
0000
0000
0000
0000
ENDCHAR
STARTCHAR char218
ENCODING 218
SWIDTH 528 0
DWIDTH 11 0
BBX 11 18 0 -4
BITMAP
0000
0000
0000
0000
0000
1F80
30C0
00C0
00C0
0780
00C0
00C0
30C0
1F80
0000
0000
0000
0000
ENDCHAR
STARTCHAR char219
ENCODING 219
SWIDTH 528 0
DWIDTH 11 0
BBX 11 18 0 -4
BITMAP
0000
0000
0000
0000
0000
64C0
64C0
64C0
64C0
64C0
64C0
64C0
64C0
7FC0
0000
0000
0000
0000
ENDCHAR
STARTCHAR char220
ENCODING 220
SWIDTH 528 0
DWIDTH 11 0
BBX 11 18 0 -4
BITMAP
0000
0000
0000
0000
0000
1F00
3180
00C0
00C0
0FC0
00C0
00C0
3180
1F00
0000
0000
0000
0000
ENDCHAR
STARTCHAR char221
ENCODING 221
SWIDTH 528 0
DWIDTH 11 0
BBX 11 18 0 -4
BITMAP
0000
0000
0000
0000
0000
64C0
64C0
64C0
64C0
64C0
64C0
64C0
64C0
7FE0
0060
0060
0000
0000
ENDCHAR
STARTCHAR char222
ENCODING 222
SWIDTH 528 0
DWIDTH 11 0
BBX 11 18 0 -4
BITMAP
0000
0000
0000
0000
0000
30C0
30C0
30C0
30C0
1FC0
00C0
00C0
00C0
00C0
0000
0000
0000
0000
ENDCHAR
STARTCHAR char223
ENCODING 223
SWIDTH 528 0
DWIDTH 11 0
BBX 11 18 0 -4
BITMAP
0000
0000
0000
0000
0000
7800
1800
1800
1F80
18C0
18C0
18C0
18C0
1F80
0000
0000
0000
0000
ENDCHAR
STARTCHAR char224
ENCODING 224
SWIDTH 528 0
DWIDTH 11 0
BBX 11 18 0 -4
BITMAP
0000
0000
6380
66C0
6C60
6C60
6C60
7C60
6C60
6C60
6C60
6C60
66C0
6380
0000
0000
0000
0000
ENDCHAR
STARTCHAR char225
ENCODING 225
SWIDTH 528 0
DWIDTH 11 0
BBX 11 18 0 -4
BITMAP
0000
0000
0600
0600
0F00
0B00
0B00
1B80
1180
1180
3FC0
20C0
20C0
60E0
0000
0000
0000
0000
ENDCHAR
STARTCHAR char226
ENCODING 226
SWIDTH 528 0
DWIDTH 11 0
BBX 11 18 0 -4
BITMAP
0000
0000
3F80
3000
3000
3000
3F00
3180
30C0
30C0
30C0
30C0
3180
3F00
0000
0000
0000
0000
ENDCHAR
STARTCHAR char227
ENCODING 227
SWIDTH 528 0
DWIDTH 11 0
BBX 11 18 0 -4
BITMAP
0000
0000
30C0
30C0
30C0
30C0
30C0
30C0
30C0
30C0
30C0
30C0
30C0
3FE0
0060
0060
0000
0000
ENDCHAR
STARTCHAR char228
ENCODING 228
SWIDTH 528 0
DWIDTH 11 0
BBX 11 18 0 -4
BITMAP
0000
0000
1FC0
18C0
18C0
18C0
18C0
18C0
18C0
18C0
18C0
18C0
30C0
7FE0
6060
6060
0000
0000
ENDCHAR
STARTCHAR char229
ENCODING 229
SWIDTH 528 0
DWIDTH 11 0
BBX 11 18 0 -4
BITMAP
0000
0000
3FC0
3000
3000
3000
3F00
3000
3000
3000
3000
3000
3000
3FC0
0000
0000
0000
0000
ENDCHAR
STARTCHAR char230
ENCODING 230
SWIDTH 528 0
DWIDTH 11 0
BBX 11 18 0 -4
BITMAP
0000
0000
0600
0600
3FC0
6660
6660
6660
6660
6660
6660
3FC0
0600
0600
0000
0000
0000
0000
ENDCHAR
STARTCHAR char231
ENCODING 231
SWIDTH 528 0
DWIDTH 11 0
BBX 11 18 0 -4
BITMAP
0000
0000
1FE0
1800
1800
1800
1800
1800
1800
1800
1800
1800
1800
1800
0000
0000
0000
0000
ENDCHAR
STARTCHAR char232
ENCODING 232
SWIDTH 528 0
DWIDTH 11 0
BBX 11 18 0 -4
BITMAP
0000
0000
30C0
3080
1980
1900
0F00
0E00
0700
0F00
0980
1980
10C0
30C0
0000
0000
0000
0000
ENDCHAR
STARTCHAR char233
ENCODING 233
SWIDTH 528 0
DWIDTH 11 0
BBX 11 18 0 -4
BITMAP
0000
0000
31C0
31C0
31C0
32C0
32C0
32C0
34C0
34C0
34C0
38C0
38C0
38C0
0000
0000
0000
0000
ENDCHAR
STARTCHAR char234
ENCODING 234
SWIDTH 528 0
DWIDTH 11 0
BBX 11 18 0 -4
BITMAP
0F00
0000
31C0
31C0
31C0
32C0
32C0
32C0
34C0
34C0
34C0
38C0
38C0
38C0
0000
0000
0000
0000
ENDCHAR
STARTCHAR char235
ENCODING 235
SWIDTH 528 0
DWIDTH 11 0
BBX 11 18 0 -4
BITMAP
0000
0000
30C0
3180
3300
3600
3E00
3600
3300
3300
3180
3180
30C0
30C0
0000
0000
0000
0000
ENDCHAR
STARTCHAR char236
ENCODING 236
SWIDTH 528 0
DWIDTH 11 0
BBX 11 18 0 -4
BITMAP
0000
0000
1FC0
18C0
18C0
18C0
18C0
18C0
18C0
18C0
18C0
18C0
18C0
70C0
0000
0000
0000
0000
ENDCHAR
STARTCHAR char237
ENCODING 237
SWIDTH 528 0
DWIDTH 11 0
BBX 11 18 0 -4
BITMAP
0000
0000
60C0
60C0
60C0
71C0
71C0
71C0
5AC0
5AC0
5AC0
4CC0
4CC0
4CC0
0000
0000
0000
0000
ENDCHAR
STARTCHAR char238
ENCODING 238
SWIDTH 528 0
DWIDTH 11 0
BBX 11 18 0 -4
BITMAP
0000
0000
30C0
30C0
30C0
30C0
3FC0
30C0
30C0
30C0
30C0
30C0
30C0
30C0
0000
0000
0000
0000
ENDCHAR
STARTCHAR char239
ENCODING 239
SWIDTH 528 0
DWIDTH 11 0
BBX 11 18 0 -4
BITMAP
0000
0000
1F00
3180
60C0
60C0
60C0
60C0
60C0
60C0
60C0
60C0
3180
1F00
0000
0000
0000
0000
ENDCHAR
STARTCHAR char240
ENCODING 240
SWIDTH 528 0
DWIDTH 11 0
BBX 11 18 0 -4
BITMAP
0000
0000
3FC0
30C0
30C0
30C0
30C0
30C0
30C0
30C0
30C0
30C0
30C0
30C0
0000
0000
0000
0000
ENDCHAR
STARTCHAR char241
ENCODING 241
SWIDTH 528 0
DWIDTH 11 0
BBX 11 18 0 -4
BITMAP
0000
0000
0FC0
18C0
30C0
30C0
30C0
18C0
0FC0
06C0
0CC0
18C0
30C0
60C0
0000
0000
0000
0000
ENDCHAR
STARTCHAR char242
ENCODING 242
SWIDTH 528 0
DWIDTH 11 0
BBX 11 18 0 -4
BITMAP
0000
0000
3F00
3180
30C0
30C0
30C0
30C0
3180
3F00
3000
3000
3000
3000
0000
0000
0000
0000
ENDCHAR
STARTCHAR char243
ENCODING 243
SWIDTH 528 0
DWIDTH 11 0
BBX 11 18 0 -4
BITMAP
0000
0000
0F80
18C0
3000
3000
3000
3000
3000
3000
3000
3000
18C0
0F80
0000
0000
0000
0000
ENDCHAR
STARTCHAR char244
ENCODING 244
SWIDTH 528 0
DWIDTH 11 0
BBX 11 18 0 -4
BITMAP
0000
0000
7FE0
0600
0600
0600
0600
0600
0600
0600
0600
0600
0600
0600
0000
0000
0000
0000
ENDCHAR
STARTCHAR char245
ENCODING 245
SWIDTH 528 0
DWIDTH 11 0
BBX 11 18 0 -4
BITMAP
0000
0000
3060
3060
1840
18C0
0CC0
0C80
0780
0780
0300
0300
0600
3C00
0000
0000
0000
0000
ENDCHAR
STARTCHAR char246
ENCODING 246
SWIDTH 528 0
DWIDTH 11 0
BBX 11 18 0 -4
BITMAP
0000
0000
64C0
64C0
64C0
64C0
64C0
3F80
64C0
64C0
64C0
64C0
64C0
64C0
0000
0000
0000
0000
ENDCHAR
STARTCHAR char247
ENCODING 247
SWIDTH 528 0
DWIDTH 11 0
BBX 11 18 0 -4
BITMAP
0000
0000
3F00
3180
30C0
30C0
3180
3F00
3180
30C0
30C0
30C0
3180
3F00
0000
0000
0000
0000
ENDCHAR
STARTCHAR char248
ENCODING 248
SWIDTH 528 0
DWIDTH 11 0
BBX 11 18 0 -4
BITMAP
0000
0000
3000
3000
3000
3000
3F00
3180
30C0
30C0
30C0
30C0
3180
3F00
0000
0000
0000
0000
ENDCHAR
STARTCHAR char249
ENCODING 249
SWIDTH 528 0
DWIDTH 11 0
BBX 11 18 0 -4
BITMAP
0000
0000
6060
6060
6060
6060
7C60
6660
6360
6360
6360
6360
6660
7C60
0000
0000
0000
0000
ENDCHAR
STARTCHAR char250
ENCODING 250
SWIDTH 528 0
DWIDTH 11 0
BBX 11 18 0 -4
BITMAP
0000
0000
1F00
3180
00C0
00C0
0180
0F00
0180
00C0
00C0
00C0
3180
1F00
0000
0000
0000
0000
ENDCHAR
STARTCHAR char251
ENCODING 251
SWIDTH 528 0
DWIDTH 11 0
BBX 11 18 0 -4
BITMAP
0000
0000
64C0
64C0
64C0
64C0
64C0
64C0
64C0
64C0
64C0
64C0
64C0
7FC0
0000
0000
0000
0000
ENDCHAR
STARTCHAR char252
ENCODING 252
SWIDTH 528 0
DWIDTH 11 0
BBX 11 18 0 -4
BITMAP
0000
0000
1F00
3180
00C0
00C0
00C0
0FC0
00C0
00C0
00C0
00C0
3180
1F00
0000
0000
0000
0000
ENDCHAR
STARTCHAR char253
ENCODING 253
SWIDTH 528 0
DWIDTH 11 0
BBX 11 18 0 -4
BITMAP
0000
0000
64C0
64C0
64C0
64C0
64C0
64C0
64C0
64C0
64C0
64C0
64C0
7FE0
0060
0060
0000
0000
ENDCHAR
STARTCHAR char254
ENCODING 254
SWIDTH 528 0
DWIDTH 11 0
BBX 11 18 0 -4
BITMAP
0000
0000
30C0
30C0
30C0
30C0
30C0
30C0
1FC0
00C0
00C0
00C0
00C0
00C0
0000
0000
0000
0000
ENDCHAR
STARTCHAR char255
ENCODING 255
SWIDTH 528 0
DWIDTH 11 0
BBX 11 18 0 -4
BITMAP
0000
0000
7800
1800
1800
1800
1F00
1980
18C0
18C0
18C0
18C0
1980
1F00
0000
0000
0000
0000
ENDCHAR
ENDFONT
